<?xml version="1.0" encoding="UTF-8"?>
<svg id="Layer_1" data-name="Layer 1" xmlns="http://www.w3.org/2000/svg" viewBox="0 0 700 300">
  <defs>
    <style>
      .cls-1 {
        fill: none;
        stroke: #fff;
        stroke-linecap: round;
        stroke-linejoin: round;
        stroke-width: 10px;
      }

      .cls-2 {
        fill: #efb359;
        stroke-width: 0px;
      }
    </style>
  </defs>
  <circle class="cls-2" cx="350" cy="150" r="114"/>
  <path class="cls-1" d="m419.53,142.53h-11.78c-1.61,0-2.99-1.14-3.32-2.71-1.34-6.22-3.73-12.05-6.98-17.3-.84-1.35-.66-3.09.47-4.22l8.68-8.68c1.33-1.33,1.33-3.48,0-4.81l-7.77-7.77c-1.33-1.33-3.48-1.33-4.81,0l-8.35,8.35c-1.16,1.16-2.97,1.31-4.33.39-5.83-3.92-12.44-6.75-19.56-8.21-1.59-.33-2.75-1.71-2.75-3.33v-13.84c0-1.88-1.52-3.4-3.4-3.4h-10.99c-1.88,0-3.4,1.52-3.4,3.4v14.08c0,1.6-1.12,2.97-2.68,3.32-6.76,1.52-13.05,4.29-18.61,8.05-1.36.92-3.18.77-4.34-.39l-8.42-8.42c-1.33-1.33-3.48-1.33-4.81,0l-7.77,7.77c-1.33,1.33-1.33,3.48,0,4.81l8.78,8.78c1.12,1.12,1.3,2.86.47,4.21-3.22,5.22-5.59,11.01-6.91,17.2-.34,1.58-1.71,2.71-3.33,2.71h-14.07c-1.88,0-3.4,1.52-3.4,3.4v10.99c0,1.88,1.52,3.4,3.4,3.4h14.07c1.61,0,2.99,1.14,3.33,2.72,1.49,6.92,4.28,13.35,8.1,19.04.92,1.36.77,3.17-.39,4.33l-7.94,7.94c-1.33,1.33-1.33,3.48,0,4.81l7.77,7.77c1.33,1.33,3.48,1.33,4.81,0l8.27-8.27c1.12-1.12,2.87-1.3,4.22-.47,5.1,3.16,10.75,5.5,16.77,6.86,1.56.35,2.68,1.72,2.68,3.32v13.23c0,1.88,1.52,3.4,3.4,3.4h10.99c1.88,0,3.4-1.52,3.4-3.4v-12.99c0-1.62,1.15-3,2.74-3.33,6.38-1.31,12.36-3.72,17.72-7.03,1.35-.83,3.09-.65,4.21.47l8.2,8.2c1.33,1.33,3.48,1.33,4.81,0l7.77-7.77c1.33-1.33,1.33-3.48,0-4.81l-7.83-7.83c-1.16-1.16-1.31-2.98-.39-4.34,3.86-5.71,6.67-12.17,8.16-19.13.34-1.58,1.71-2.72,3.33-2.72h11.78c1.88,0,3.4-1.52,3.4-3.4v-10.99c0-1.88-1.52-3.4-3.4-3.4Zm-69.99,40.09c-17.46,0-31.62-14.16-31.62-31.62,0-17.46,14.16-31.62,31.62-31.62,17.46,0,31.62,14.16,31.62,31.62s-14.16,31.62-31.62,31.62Z"/>
</svg>